<svg id="Layer_1" data-name="Layer 1" xmlns="http://www.w3.org/2000/svg" viewBox="0 0 112.24 13.01"><title>digital-support-logo</title><path d="M165.69,98v4.48h-1.32V98h-0.56V96.79h0.56V94.7h1.32v2.09h1V98h-1Z" transform="translate(-163.81 -92.6)" style="fill:#343a56"/><path d="M168.75,92.6h1.32v4.66a2.27,2.27,0,0,1,1.55-.63,2,2,0,0,1,1.55.63,2.55,2.55,0,0,1,.49,1.74v3.5h-1.32V99.13a1.61,1.61,0,0,0-.24-1,0.94,0.94,0,0,0-.78-0.31,1.08,1.08,0,0,0-1,.43,2.93,2.93,0,0,0-.28,1.49v2.76h-1.32V92.6Z" transform="translate(-163.81 -92.6)" style="fill:#343a56"/><path d="M181.43,100h-4.09a1.73,1.73,0,0,0,.46,1.12,1.39,1.39,0,0,0,1,.41,1.35,1.35,0,0,0,.81-0.23,3.33,3.33,0,0,0,.72-0.87l1.11,0.62a4.43,4.43,0,0,1-.54.75,2.9,2.9,0,0,1-.62.52,2.47,2.47,0,0,1-.71.3,3.45,3.45,0,0,1-.83.09,2.69,2.69,0,0,1-2.05-.82,3.08,3.08,0,0,1-.77-2.19,3.16,3.16,0,0,1,.75-2.19,2.86,2.86,0,0,1,4,0,3.16,3.16,0,0,1,.73,2.21V100Zm-1.35-1.08a1.26,1.26,0,0,0-1.33-1.05,1.37,1.37,0,0,0-.45.07,1.29,1.29,0,0,0-.38.21,1.34,1.34,0,0,0-.3.33,1.54,1.54,0,0,0-.19.44h2.65Z" transform="translate(-163.81 -92.6)" style="fill:#343a56"/><path d="M188,92.6h1.32v9.9H188v-0.6a2.46,2.46,0,0,1-1.76.76,2.51,2.51,0,0,1-1.95-.86,3.18,3.18,0,0,1-.77-2.18,3.08,3.08,0,0,1,.77-2.13,2.47,2.47,0,0,1,3.71,0V92.6Zm-3.13,7a2,2,0,0,0,.44,1.34,1.44,1.44,0,0,0,1.14.52,1.51,1.51,0,0,0,1.18-.5,2.17,2.17,0,0,0,0-2.65,1.49,1.49,0,0,0-1.17-.51,1.46,1.46,0,0,0-1.14.52A1.9,1.9,0,0,0,184.85,99.63Z" transform="translate(-163.81 -92.6)" style="fill:#343a56"/><path d="M191.67,94.42a0.86,0.86,0,0,1,.86-0.85,0.83,0.83,0,0,1,.61.25,0.81,0.81,0,0,1,.25.6,0.83,0.83,0,0,1-.25.61,0.81,0.81,0,0,1-.6.25A0.86,0.86,0,0,1,191.67,94.42Zm1.52,2.37v5.71h-1.32V96.79h1.32Z" transform="translate(-163.81 -92.6)" style="fill:#343a56"/><path d="M201.28,102.37q0,0.4,0,.71a5,5,0,0,1-.07.54,2.41,2.41,0,0,1-.55,1.11,2.67,2.67,0,0,1-2.13.89,2.84,2.84,0,0,1-1.88-.62,2.51,2.51,0,0,1-.88-1.75h1.32a1.5,1.5,0,0,0,.25.65,1.42,1.42,0,0,0,1.2.53q1.45,0,1.45-1.78v-0.8a2.46,2.46,0,0,1-1.81.8,2.43,2.43,0,0,1-1.91-.84,3.13,3.13,0,0,1-.75-2.14,3.29,3.29,0,0,1,.7-2.12,2.42,2.42,0,0,1,2-.93,2.3,2.3,0,0,1,1.79.8V96.79h1.32v5.57ZM200,99.66a1.92,1.92,0,0,0-.45-1.33,1.47,1.47,0,0,0-1.15-.51,1.42,1.42,0,0,0-1.18.56,2.29,2.29,0,0,0,0,2.57,1.42,1.42,0,0,0,1.18.54,1.45,1.45,0,0,0,1.2-.55A2,2,0,0,0,200,99.66Z" transform="translate(-163.81 -92.6)" style="fill:#343a56"/><path d="M203.64,94.42a0.86,0.86,0,0,1,.86-0.85,0.83,0.83,0,0,1,.61.25,0.81,0.81,0,0,1,.25.6,0.83,0.83,0,0,1-.25.61,0.81,0.81,0,0,1-.6.25A0.86,0.86,0,0,1,203.64,94.42Zm1.52,2.37v5.71h-1.32V96.79h1.32Z" transform="translate(-163.81 -92.6)" style="fill:#343a56"/><path d="M209.09,98v4.48h-1.32V98h-0.56V96.79h0.56V94.7h1.32v2.09h1V98h-1Z" transform="translate(-163.81 -92.6)" style="fill:#343a56"/><path d="M216.22,96.79h1.32v5.71h-1.32v-0.6a2.53,2.53,0,0,1-3.71-.09,3.18,3.18,0,0,1-.77-2.18,3.08,3.08,0,0,1,.77-2.14,2.47,2.47,0,0,1,1.92-.86,2.43,2.43,0,0,1,1.79.82V96.79Zm-3.13,2.84a2,2,0,0,0,.44,1.34,1.44,1.44,0,0,0,1.14.52,1.51,1.51,0,0,0,1.18-.5,2.17,2.17,0,0,0,0-2.65,1.49,1.49,0,0,0-1.17-.51,1.46,1.46,0,0,0-1.14.52A1.9,1.9,0,0,0,213.09,99.63Z" transform="translate(-163.81 -92.6)" style="fill:#343a56"/><path d="M221.43,92.6v9.9h-1.32V92.6h1.32Z" transform="translate(-163.81 -92.6)" style="fill:#343a56"/><path d="M233.65,97.77l-1.09.58a0.76,0.76,0,0,0-.64-0.53,0.44,0.44,0,0,0-.31.12,0.4,0.4,0,0,0-.13.31,1,1,0,0,0,.76.65,4.54,4.54,0,0,1,1.41.83,1.42,1.42,0,0,1,.36,1,1.8,1.8,0,0,1-.61,1.38,2.19,2.19,0,0,1-3.46-.87l1.13-.52a2.45,2.45,0,0,0,.36.52,0.82,0.82,0,0,0,.57.22,0.57,0.57,0,0,0,.67-0.61,0.84,0.84,0,0,0-.52-0.66l-0.4-.19-0.4-.19a2.47,2.47,0,0,1-.81-0.56,1.39,1.39,0,0,1-.3-0.92,1.63,1.63,0,0,1,.51-1.23,1.79,1.79,0,0,1,1.27-.49A1.73,1.73,0,0,1,233.65,97.77Z" transform="translate(-163.81 -92.6)" style="fill:#343a56"/><path d="M237.42,96.79v3.28q0,1.42,1.12,1.42t1.12-1.42V96.79H241v3.3a3.68,3.68,0,0,1-.17,1.18,2,2,0,0,1-.57.8,2.77,2.77,0,0,1-3.39,0,2,2,0,0,1-.58-0.8,3.26,3.26,0,0,1-.16-1.18v-3.3h1.32Z" transform="translate(-163.81 -92.6)" style="fill:#343a56"/><path d="M244.86,105.61h-1.32V96.79h1.32v0.62a2.44,2.44,0,0,1,1.77-.78,2.47,2.47,0,0,1,1.94.87,3.13,3.13,0,0,1,.77,2.17,3.08,3.08,0,0,1-.77,2.14,2.5,2.5,0,0,1-3.71,0v3.74ZM248,99.68a2,2,0,0,0-.45-1.34,1.44,1.44,0,0,0-1.14-.52,1.51,1.51,0,0,0-1.18.5,1.91,1.91,0,0,0-.45,1.32,2,2,0,0,0,.45,1.32,1.48,1.48,0,0,0,1.17.51,1.43,1.43,0,0,0,1.13-.52A1.87,1.87,0,0,0,248,99.68Z" transform="translate(-163.81 -92.6)" style="fill:#343a56"/><path d="M253,105.61h-1.32V96.79H253v0.62a2.44,2.44,0,0,1,1.77-.78,2.47,2.47,0,0,1,1.94.87,3.13,3.13,0,0,1,.77,2.17,3.08,3.08,0,0,1-.77,2.14,2.5,2.5,0,0,1-3.71,0v3.74Zm3.13-5.92a2,2,0,0,0-.45-1.34,1.44,1.44,0,0,0-1.14-.52,1.51,1.51,0,0,0-1.18.5,1.91,1.91,0,0,0-.45,1.32,2,2,0,0,0,.45,1.32,1.48,1.48,0,0,0,1.17.51,1.43,1.43,0,0,0,1.13-.52A1.87,1.87,0,0,0,256.09,99.68Z" transform="translate(-163.81 -92.6)" style="fill:#343a56"/><path d="M259.46,99.61a2.84,2.84,0,0,1,.88-2.1,3.12,3.12,0,0,1,4.32,0,3.06,3.06,0,0,1,0,4.29,3,3,0,0,1-2.19.86,2.9,2.9,0,0,1-2.15-.88A3,3,0,0,1,259.46,99.61Zm1.35,0a1.92,1.92,0,0,0,.46,1.35,1.78,1.78,0,0,0,2.47,0,2.14,2.14,0,0,0,0-2.66,1.75,1.75,0,0,0-2.46,0A1.83,1.83,0,0,0,260.81,99.63Z" transform="translate(-163.81 -92.6)" style="fill:#343a56"/><path d="M267.84,96.79h1.32V97.3a2.52,2.52,0,0,1,.64-0.52,1.48,1.48,0,0,1,.68-0.15,2.13,2.13,0,0,1,1.09.34L271,98.18a1.26,1.26,0,0,0-.73-0.27q-1.08,0-1.08,1.63v3h-1.32V96.79Z" transform="translate(-163.81 -92.6)" style="fill:#343a56"/><path d="M275,98v4.48h-1.32V98h-0.56V96.79h0.56V94.7H275v2.09h1V98h-1Z" transform="translate(-163.81 -92.6)" style="fill:#343a56"/><path d="M224,101.52a1.22,1.22,0,0,1,2.08-.85,1.22,1.22,0,0,1-1.73,1.73A1.19,1.19,0,0,1,224,101.52Z" transform="translate(-163.81 -92.6)" style="fill:#e75251"/></svg>